# xmcd
#
# Track frame offsets:
#	150
#	20487
#	37020
#	53928
#	75525
#	94040
#	110793
#	130715
#	145774
#	162309
#	176296
#	198844
#	215790
#	230482
#	252022
#	271578
#
# Disc length: 3777 seconds
#
# Revision: 224338177
# Processed by: cddbd v1.5.2PL0 Copyright (c) Steve Scherf et al.
# Submitted via: EZCDAudioConverter 8.5.0.1
#
DISCID=d60ebf10
DTITLE=Don Henley - Cass County [Deluxe Edition]
DYEAR=2015
DGENRE=Country
TTITLE0=Don Henley Feat. Mick Jagger and Miranda Lambert - Bramble Rose
TTITLE1=Don Henley Feat. Merle Haggard - The Cost Of Living
TTITLE2=Don Henley - No, Thank You
TTITLE3=Don Henley - Waiting Tables
TTITLE4=Don Henley - Take A Picture Of This
TTITLE5=Don Henley - Too Far Gone
TTITLE6=Don Henley Feat. Martina McBride - That Old Flame
TTITLE7=Don Henley - The Brand New Tennessee Waltz
TTITLE8=Don Henley - Words Can Break Your Heart
TTITLE9=Don Henley Feat. Dolly Parton - When I Stop Dreaming
TTITLE10=Don Henley - Praying For Rain
TTITLE11=Don Henley - Too Much Pride
TTITLE12=Don Henley - She Sang Hymns Out Of Tune
TTITLE13=Don Henley - Train In The Distance
TTITLE14=Don Henley - A Younger Man
TTITLE15=Don Henley - Where I Am Now
EXTD=
EXTT0=
EXTT1=
EXTT2=
EXTT3=
EXTT4=
EXTT5=
EXTT6=
EXTT7=
EXTT8=
EXTT9=
EXTT10=
EXTT11=
EXTT12=
EXTT13=
EXTT14=
EXTT15=
PLAYORDER=
